Coordinates	
version=1	
nRows=536	
nColumns=2	
inDegrees=yes	
	
"Units are S.I. units (second, meters, Newtons, ...)"	
Angles are in degrees.	
	
endheader	
time	transX
75	14.53066891
75.02	14.45665324
75.04	14.38258478
75.06	14.30846677
75.08	14.23430242
75.1	14.1600945
75.12	14.05600257
75.14	13.95167355
75.16	13.84711014
75.18	13.74231499
75.2	13.6372935
75.22	13.5278281
75.24	13.41811933
75.26	13.30817269
75.28	13.19799367
75.3	13.08758808
75.32	12.9974286
75.34	12.90719056
75.36	12.81687966
75.38	12.7265016
75.4	12.63606011
75.42	12.55542642
75.44	12.47480219
75.46	12.39419095
75.48	12.31359616
75.5	12.23302039
75.52	12.15134721
75.54	12.06969048
75.56	11.98805263
75.58	11.90643608
75.6	11.8248433
75.62	11.73090989
75.64	11.63692276
75.66	11.54288439
75.68	11.44879721
75.7	11.35466477
75.72	11.24097266
75.74	11.12711241
75.76	11.01308759
75.78	10.89890175
75.8	10.7845602
75.82	10.68168371
75.84	10.57873977
75.86	10.47573372
75.88	10.37267088
75.9	10.26955544
75.92	10.19954353
75.94	10.12970816
75.96	10.06005335
75.98	9.990583079
76	9.921298262
76.02	9.849956527
76.04	9.77878658
76.06	9.707789051
76.08	9.636964566
76.1	9.566313956
76.12	9.466784907
76.14	9.367237731
76.16	9.267673268
76.18	9.16809235
76.2	9.068498468
76.22	9.017940852
76.24	8.967704604
76.26	8.917793373
76.28	8.868210777
76.3	8.818955918
76.32	8.748530329
76.34	8.678286608
76.36	8.608223481
76.38	8.538339686
76.4	8.468635942
76.42	8.398252614
76.44	8.32804537
76.46	8.258015095
76.48	8.188162665
76.5	8.118489032
76.52	8.088743092
76.54	8.059442829
76.56	8.030589178
76.58	8.002183071
76.6	7.974221791
76.62	7.964893517
76.64	7.956125348
76.66	7.947914309
76.68	7.940257455
76.7	7.933150197
76.72	7.924095251
76.74	7.915563939
76.76	7.907551639
76.78	7.900053773
76.8	7.893066028
76.82	7.886703423
76.84	7.880843257
76.86	7.875481344
76.88	7.870613536
76.9	7.866235705
76.92	7.862749256
76.94	7.859747335
76.96	7.857225915
76.98	7.855181003
77	7.853608599
77.02	7.851581121
77.04	7.850012085
77.06	7.848897582
77.08	7.848233737
77.1	7.848016787
77.12	7.851075023
77.14	7.854591613
77.16	7.858562888
77.18	7.862985209
77.2	7.867854704
77.22	7.895115855
77.24	7.922962802
77.26	7.951391739
77.28	7.980398887
77.3	8.009978486
77.32	8.065479619
77.34	8.1217105
77.36	8.178665323
77.38	8.236338324
77.4	8.294721466
77.42	8.32331216
77.44	8.352393407
77.46	8.381957151
77.48	8.411995398
77.5	8.442503009
77.52	8.464965759
77.54	8.48783147
77.56	8.51109537
77.58	8.53475272
77.6	8.558799597
77.62	8.607765683
77.64	8.65727722
77.66	8.707330437
77.68	8.757921586
77.7	8.809044699
77.72	8.923566094
77.74	9.039026407
77.76	9.155419597
77.78	9.272739672
77.8	9.390974925
77.82	9.493460596
77.84	9.59672629
77.86	9.70076006
77.88	9.805550054
77.9	9.911086037
77.92	9.905036444
77.94	9.898964071
77.96	9.89285906
77.98	9.886711629
78	9.880522356
78.02	9.957757257
78.04	10.03550966
78.06	10.11378102
78.08	10.19257278
78.1	10.27187873
78.12	10.32229512
78.14	10.37301606
78.16	10.42403478
78.18	10.47534456
78.2	10.5269414
78.22	10.5918955
78.24	10.65721639
78.26	10.7229004
78.28	10.78894387
78.3	10.855342
78.32	10.93118498
78.34	11.00743347
78.36	11.08408266
78.38	11.16112773
78.4	11.23856308
78.42	11.2736645
78.44	11.30886017
78.46	11.34414454
78.48	11.37951208
78.5	11.41496122
78.52	11.44267391
78.54	11.47041364
78.56	11.49817919
78.58	11.52596936
78.6	11.55378366
78.62	11.56722253
78.64	11.58058867
78.66	11.59388163
78.68	11.60710097
78.7	11.62024756
78.72	11.67914676
78.74	11.73828063
78.76	11.79765009
78.78	11.85725606
78.8	11.91709527
78.82	11.96841046
78.84	12.01989326
78.86	12.07154008
78.88	12.12334731
78.9	12.17531221
78.92	12.20438924
78.94	12.23346496
78.96	12.26253676
78.98	12.29160199
79	12.32066015
79.02	12.35747827
79.04	12.39434046
79.06	12.4312464
79.08	12.46819576
79.1	12.50518749
79.12	12.55151856
79.14	12.59795179
79.16	12.64448607
79.18	12.69112031
79.2	12.73785255
79.22	12.79919989
79.24	12.86073802
79.26	12.92246493
79.28	12.98437863
79.3	13.04647582
79.32	13.06709432
79.34	13.08761181
79.36	13.10802492
79.38	13.12833032
79.4	13.1485285
79.42	13.20074504
79.44	13.25307016
79.46	13.30550466
79.48	13.35804935
79.5	13.41070205
79.52	13.46764327
79.54	13.5247156
79.56	13.58191665
79.58	13.63924406
79.6	13.69669509
79.62	13.73935007
79.64	13.78202373
79.66	13.82471334
79.68	13.86741619
79.7	13.91013097
79.72	13.97900129
79.74	14.04805545
79.76	14.11729226
79.78	14.18671054
79.8	14.25630674
79.82	14.28563128
79.84	14.31485662
79.86	14.34397905
79.88	14.37299489
79.9	14.4019042
79.92	14.54964276
79.94	14.69806841
79.96	14.84718153
79.98	14.99698246
80	15.14746067
80.02	15.19122506
80.04	15.23492813
80.06	15.27855864
80.08	15.3221054
80.1	15.36556716
80.12	15.34513477
80.14	15.32419123
80.16	15.30273618
80.18	15.28076928
80.2	15.25829602
80.22	15.31919792
80.24	15.38016447
80.26	15.44120154
80.28	15.50231493
80.3	15.56350272
80.32	15.63299586
80.34	15.70261314
80.36	15.77235195
80.38	15.84220973
80.4	15.91218319
80.42	15.96721551
80.44	16.02225649
80.46	16.07730282
80.48	16.13235124
80.5	16.18739989
80.52	16.24141399
80.54	16.29541796
80.56	16.3494101
80.58	16.40338872
80.6	16.45735221
80.62	16.51431385
80.64	16.57127733
80.66	16.62824111
80.68	16.68520365
80.7	16.74216314
80.72	16.79074009
80.74	16.83925451
80.76	16.8877046
80.78	16.9360886
80.8	16.98440549
80.82	17.01833006
80.84	17.05209018
80.86	17.08568493
80.88	17.11911339
80.9	17.15237598
80.92	17.19398132
80.94	17.23547853
80.96	17.27686811
80.98	17.31815055
81	17.35932557
81.02	17.43040743
81.04	17.50158125
81.06	17.57284669
81.08	17.64420338
81.1	17.71564822
81.12	17.757873
81.14	17.79998395
81.16	17.8419778
81.18	17.8838513
81.2	17.92560392
81.22	17.96220628
81.24	17.99865362
81.26	18.03494566
81.28	18.0710821
81.3	18.10706313
81.32	18.13481561
81.34	18.16235928
81.36	18.18969432
81.38	18.21682096
81.4	18.24374012
81.42	18.26583704
81.44	18.28769771
81.46	18.30932309
81.48	18.33071415
81.5	18.35187228
81.52	18.38694011
81.54	18.42187208
81.56	18.45666959
81.58	18.49133399
81.6	18.52586537
81.62	18.54329538
81.64	18.56047914
81.66	18.57741659
81.68	18.59410769
81.7	18.61055393
81.72	18.61159369
81.74	18.61229074
81.76	18.61264668
81.78	18.61266311
81.8	18.61234299
81.82	18.61110115
81.84	18.60952494
81.86	18.60761737
81.88	18.60538144
81.9	18.60282015
81.92	18.59494666
81.94	18.58672052
81.96	18.57814469
81.98	18.5692221
82	18.55995611
82.02	18.52893029
82.04	18.49742498
82.06	18.4654435
82.08	18.43298916
82.1	18.40006716
82.12	18.36437934
82.14	18.32821917
82.16	18.29159195
82.18	18.25450291
82.2	18.21695743
82.22	18.20943614
82.24	18.2016723
82.26	18.1936712
82.28	18.18543809
82.3	18.17697538
82.32	18.1344208
82.34	18.09141515
82.36	18.04796054
82.38	18.00405907
82.4	17.95971592
82.42	17.93752263
82.44	17.91504902
82.46	17.89230044
82.48	17.86928216
82.5	17.8459974
82.52	17.82605317
82.54	17.80587242
82.56	17.78545808
82.58	17.76481306
82.6	17.74393993
82.62	17.71418105
82.64	17.68414132
82.66	17.65382324
82.68	17.62322926
82.7	17.59236261
82.72	17.57762292
82.74	17.56272643
82.76	17.54767636
82.78	17.53247594
82.8	17.51712686
82.82	17.4990746
82.84	17.48085974
82.86	17.46248379
82.88	17.44394829
82.9	17.42525497
82.92	17.41969287
82.94	17.41406504
82.96	17.40837322
82.98	17.40261913
83	17.39680327
83.02	17.40783487
83.04	17.41891822
83.06	17.4300537
83.08	17.44124172
83.1	17.45248112
83.12	17.46481915
83.14	17.47721302
83.16	17.48966148
83.18	17.50216329
83.2	17.51471714
83.22	17.53499206
83.24	17.55536756
83.26	17.57584236
83.28	17.59641519
83.3	17.61708412
83.32	17.64670438
83.34	17.67647583
83.36	17.70639652
83.38	17.73646452
83.4	17.76667712
83.42	17.78069038
83.44	17.79473381
83.46	17.80880468
83.48	17.82290033
83.5	17.83701958
83.52	17.86414193
83.54	17.89137241
83.56	17.91871004
83.58	17.94615384
83.6	17.97370167
83.62	18.02493451
83.64	18.07642415
83.66	18.12816842
83.68	18.18016513
83.7	18.23241
83.72	18.25753222
83.74	18.28271127
83.76	18.30794277
83.78	18.3332224
83.8	18.35854834
83.82	18.39211473
83.84	18.42577898
83.86	18.45953958
83.88	18.49339502
83.9	18.52734307
83.92	18.59260901
83.94	18.6581712
83.96	18.72402741
83.98	18.79017543
84	18.8566102
84.02	18.87191864
84.04	18.88716064
84.06	18.90233102
84.08	18.91742466
84.1	18.93244118
84.12	18.94601805
84.14	18.9595088
84.16	18.97291349
84.18	18.98623218
84.2	18.99946507
84.22	19.05718833
84.24	19.11512337
84.26	19.17327037
84.28	19.23162953
84.3	19.29019699
84.32	19.35615243
84.34	19.42235567
84.36	19.48880258
84.38	19.55548905
84.4	19.62241034
84.42	19.66094067
84.44	19.69950558
84.46	19.73810039
84.48	19.7767205
84.5	19.81536395
84.52	19.83095562
84.54	19.84641339
84.56	19.8617356
84.58	19.87692058
84.6	19.89196883
84.62	19.91347163
84.64	19.93488294
84.66	19.9562034
84.68	19.97743366
84.7	19.99857377
84.72	20.05366451
84.74	20.10889201
84.76	20.16425626
84.78	20.21975726
84.8	20.27539188
84.82	20.28552577
84.84	20.29548237
84.86	20.30525835
84.88	20.31485042
84.9	20.3242595
84.92	20.34783147
84.94	20.37131861
84.96	20.3947222
84.98	20.4180435
85	20.44128245
85.02	20.46151269
85.04	20.48164072
85.06	20.50166637
85.08	20.52158947
85.1	20.54141011
85.12	20.52423211
85.14	20.50670593
85.16	20.48883168
85.18	20.4706095
85.2	20.45204288
85.22	20.45463894
85.24	20.45704144
85.26	20.45925408
85.28	20.46128058
85.3	20.46312262
85.32	20.44841599
85.34	20.43341881
85.36	20.41813255
85.38	20.40255867
85.4	20.38670013
85.42	20.35651728
85.44	20.32596225
85.46	20.29503806
85.48	20.26374771
85.5	20.23209546
85.52	20.18623067
85.54	20.13992025
85.56	20.09316847
85.58	20.04597958
85.6	19.99835903
85.62	19.94146751
85.64	19.88409641
85.66	19.82625118
85.68	19.76793725
85.7	19.70916078
